<svg height="512" viewBox="0 0 512 512" width="512" xmlns="http://www.w3.org/2000/svg"><g id="Flat"><path d="m448.91406 127.08594-26.59375 17.79687a199.08373 199.08373 0 0 1 33.67969 111.11719c0 110.28125-89.71875 200-200 200a199.50138 199.50138 0 0 1 -113.60889-35.6167l31.91358-13.6763-12.60938-29.414-65.69531 28.15622v74.55078h32v-30.52246a231.597 231.597 0 0 0 128 38.52246c127.92188 0 232-104.07422 232-232a230.94751 230.94751 0 0 0 -39.08594-128.91406z" fill="#ea4a3b"/><path d="m256 56a199.46324 199.46324 0 0 1 113.605 35.61816l-31.90969 13.67484 12.60938 29.414 65.69531-28.15622v-74.55078h-32v30.53271a231.53267 231.53267 0 0 0 -128-38.53271c-127.92188 0-232 104.07422-232 232a230.92268 230.92268 0 0 0 39.14844 129.00391l26.57812-17.8125a199.04581 199.04581 0 0 1 -33.72656-111.19141c0-110.28125 89.71875-200 200-200z" fill="#ea4a3b"/><path d="m168 240h160v104h-160z" fill="#3487cb"/><path d="m152 240h192l-96-96z" fill="#2a70ab"/><g fill="#4db7e5"><path d="m200 272h32v72h-32z"/><path d="m288 184v-32h32v64z"/><path d="m264 272h32v32h-32z"/></g><path d="m120 304h80v40h-80z" fill="#2a70ab"/><path d="m296 304h80v40h-80z" fill="#2a70ab"/></g></svg>